<svg xmlns="http://www.w3.org/2000/svg" xmlns:xlink="http://www.w3.org/1999/xlink" x="0" y="0" baseProfile="tiny" version="1.2" viewBox="0 0 355 240" xml:space="preserve"><g id="Frame_1"><rect width="351" height="216" x="2" y="22.4" fill="#E0EFF4"/><path fill="#FFF" d="M2,22h351V4.7c0-1.4-0.9-2.7-2.4-2.7H4.9C3.4,2,2,3.3,2,4.7V22z"/><path fill="#C1C1C1" d="M350.6,0H4.9C2.3,0,0,2.2,0,4.7v12.7v2V22v2v211.3c0,2.6,2.1,4.7,4.6,4.7h345.8c2.5,0,4.6-2.1,4.6-4.7V24 v-2V4.7C355,2.1,353.1,0,350.6,0z M353,235.3c0,1.5-1.2,2.7-2.6,2.7H4.6c-1.4,0-2.6-1.2-2.6-2.7V24h351V235.3z M353,22H2v-2.6v-2 V4.7C2,3.3,3.4,2,4.9,2h345.8c1.4,0,2.4,1.3,2.4,2.7V22z"/><circle cx="12.6" cy="12" r="4" fill="#F75C5C"/><circle cx="24.3" cy="12" r="4" fill="#F9BF37"/><circle cx="36.1" cy="12" r="4" fill="#3FCF42"/></g><g id="Frame_2" display="none"><g display="inline"><rect width="247" height="34" x="55" y="45" fill="#FFF"/><path fill="#C1C1C1" d="M301,46v32H56V46H301 M303,44H54v36h249V44L303,44z"/></g></g><g id="Frame_3" display="none"><path fill="#D6D6D6" d="M285.4,63.9h-0.8l-0.3-0.3c1-1.1,1.6-2.6,1.6-4.2c0-3.6-2.9-6.5-6.5-6.5s-6.5,2.9-6.5,6.5 s2.9,6.5,6.5,6.5c1.6,0,3.1-0.6,4.2-1.6l0.3,0.3v0.8l5,5l1.5-1.5L285.4,63.9z M279.4,63.9c-2.5,0-4.5-2-4.5-4.5 c0-2.5,2-4.5,4.5-4.5c2.5,0,4.5,2,4.5,4.5C283.9,61.9,281.9,63.9,279.4,63.9z" display="inline"/></g><g id="Frame_4" display="none"><g display="inline"><rect width="68" height="73" x="54" y="101" fill="#FFF"/><path fill="#C1C1C1" d="M121,102v71H55v-71H121 M123,100H53v75h70V100L123,100z"/></g></g><g id="Frame_5" display="none"><g display="inline"><rect width="68" height="73" x="144" y="101" fill="#FFF"/><path fill="#C1C1C1" d="M211,102v71h-66v-71H211 M213,100h-70v75h70V100L213,100z"/></g></g><g id="Frame_6" display="none"><g display="inline"><rect width="68" height="73" x="234" y="101" fill="#FFF"/><path fill="#C1C1C1" d="M301,102v71h-66v-71H301 M303,100h-70v75h70V100L303,100z"/></g></g><g id="Frame_7" display="none"><g display="inline"><rect width="68" height="43" x="54" y="196" fill="#FFF"/><path fill="#C1C1C1" d="M121,197v41H55v-41H121 M123,195H53v45h70V195L123,195z"/></g></g><g id="Frame_8" display="none"><g display="inline"><rect width="68" height="43" x="144" y="196" fill="#FFF"/><path fill="#C1C1C1" d="M211,197v41h-66v-41H211 M213,195h-70v45h70V195L213,195z"/></g></g><g id="Frame_9" display="none"><g display="inline"><rect width="68" height="43" x="234" y="196" fill="#FFF"/><path fill="#C1C1C1" d="M301,197v41h-66v-41H301 M303,195h-70v45h70V195L303,195z"/></g></g></svg>